<?xml version="1.0" encoding="UTF-8" standalone="no"?>
<!-- Created with Inkscape (http://www.inkscape.org/) -->

<svg
   width="193.886mm"
   height="36.509132mm"
   viewBox="0 0 193.88599 36.509132"
   version="1.1"
   id="svg5"
   sodipodi:docname="Synonimologos.svg"
   inkscape:version="1.1.2 (0a00cf5339, 2022-02-04, custom)"
   xmlns:inkscape="http://www.inkscape.org/namespaces/inkscape"
   xmlns:sodipodi="http://sodipodi.sourceforge.net/DTD/sodipodi-0.dtd"
   xmlns="http://www.w3.org/2000/svg"
   xmlns:svg="http://www.w3.org/2000/svg">
  <sodipodi:namedview
     id="namedview7"
     pagecolor="#505050"
     bordercolor="#ffffff"
     borderopacity="1"
     inkscape:pageshadow="0"
     inkscape:pageopacity="0"
     inkscape:pagecheckerboard="1"
     inkscape:document-units="mm"
     showgrid="false"
     inkscape:snap-global="true"
     inkscape:zoom="1.4142136"
     inkscape:cx="451.84123"
     inkscape:cy="107.83378"
     inkscape:window-width="1596"
     inkscape:window-height="864"
     inkscape:window-x="0"
     inkscape:window-y="16"
     inkscape:window-maximized="1"
     inkscape:current-layer="g94220" />
  <defs
     id="defs2">
    <inkscape:path-effect
       effect="powerstroke"
       id="path-effect22668"
       is_visible="true"
       lpeversion="1"
       offset_points="0,1"
       not_jump="false"
       sort_points="true"
       interpolator_type="CubicBezierJohan"
       interpolator_beta="0.2"
       start_linecap_type="zerowidth"
       linejoin_type="extrp_arc"
       miter_limit="4"
       scale_width="1"
       end_linecap_type="zerowidth" />
    <inkscape:path-effect
       effect="powerstroke"
       id="path-effect22576"
       is_visible="true"
       lpeversion="1"
       offset_points="0,1"
       not_jump="false"
       sort_points="true"
       interpolator_type="CubicBezierJohan"
       interpolator_beta="0.2"
       start_linecap_type="zerowidth"
       linejoin_type="extrp_arc"
       miter_limit="4"
       scale_width="1"
       end_linecap_type="zerowidth" />
    <inkscape:path-effect
       effect="powerstroke"
       id="path-effect20059"
       is_visible="true"
       lpeversion="1"
       offset_points="0,1"
       not_jump="false"
       sort_points="true"
       interpolator_type="CubicBezierJohan"
       interpolator_beta="0.2"
       start_linecap_type="zerowidth"
       linejoin_type="extrp_arc"
       miter_limit="4"
       scale_width="1"
       end_linecap_type="zerowidth" />
    <inkscape:path-effect
       effect="powerstroke"
       id="path-effect20055"
       is_visible="true"
       lpeversion="1"
       offset_points="0,1"
       not_jump="false"
       sort_points="true"
       interpolator_type="CubicBezierJohan"
       interpolator_beta="0.2"
       start_linecap_type="zerowidth"
       linejoin_type="extrp_arc"
       miter_limit="4"
       scale_width="1"
       end_linecap_type="zerowidth" />
    <rect
       x="-2.2496822"
       y="-62.148018"
       width="785.23981"
       height="126.62242"
       id="rect77241" />
    <inkscape:path-effect
       effect="powerstroke"
       id="path-effect53346"
       is_visible="true"
       lpeversion="1"
       offset_points="0,1"
       not_jump="false"
       sort_points="true"
       interpolator_type="CubicBezierJohan"
       interpolator_beta="0.2"
       start_linecap_type="zerowidth"
       linejoin_type="extrp_arc"
       miter_limit="4"
       scale_width="1"
       end_linecap_type="zerowidth" />
    <inkscape:path-effect
       effect="powerstroke"
       id="path-effect53342"
       is_visible="true"
       lpeversion="1"
       offset_points="0,1"
       not_jump="false"
       sort_points="true"
       interpolator_type="CubicBezierJohan"
       interpolator_beta="0.2"
       start_linecap_type="zerowidth"
       linejoin_type="extrp_arc"
       miter_limit="4"
       scale_width="1"
       end_linecap_type="zerowidth" />
    <inkscape:path-effect
       effect="powerstroke"
       id="path-effect53007"
       is_visible="true"
       lpeversion="1"
       offset_points="0,1"
       not_jump="false"
       sort_points="true"
       interpolator_type="CubicBezierJohan"
       interpolator_beta="0.2"
       start_linecap_type="zerowidth"
       linejoin_type="extrp_arc"
       miter_limit="4"
       scale_width="1"
       end_linecap_type="zerowidth" />
    <inkscape:path-effect
       effect="powerstroke"
       id="path-effect52757"
       is_visible="true"
       lpeversion="1"
       offset_points="0,0.99"
       not_jump="false"
       sort_points="true"
       interpolator_type="CubicBezierJohan"
       interpolator_beta="0.2"
       start_linecap_type="zerowidth"
       linejoin_type="extrp_arc"
       miter_limit="4"
       scale_width="1"
       end_linecap_type="zerowidth" />
    <inkscape:path-effect
       effect="powerstroke"
       id="path-effect51275"
       is_visible="true"
       lpeversion="1"
       offset_points="0,0.99"
       not_jump="false"
       sort_points="true"
       interpolator_type="CubicBezierJohan"
       interpolator_beta="0.2"
       start_linecap_type="zerowidth"
       linejoin_type="extrp_arc"
       miter_limit="4"
       scale_width="1"
       end_linecap_type="zerowidth" />
    <inkscape:path-effect
       effect="powerstroke"
       id="path-effect51271"
       is_visible="true"
       lpeversion="1"
       offset_points="0,0.99"
       not_jump="false"
       sort_points="true"
       interpolator_type="CubicBezierJohan"
       interpolator_beta="0.2"
       start_linecap_type="zerowidth"
       linejoin_type="extrp_arc"
       miter_limit="4"
       scale_width="1"
       end_linecap_type="zerowidth" />
    <inkscape:path-effect
       effect="powerstroke"
       id="path-effect47677"
       is_visible="true"
       lpeversion="1"
       offset_points="0,0.99"
       not_jump="false"
       sort_points="true"
       interpolator_type="CubicBezierJohan"
       interpolator_beta="0.2"
       start_linecap_type="zerowidth"
       linejoin_type="extrp_arc"
       miter_limit="4"
       scale_width="1"
       end_linecap_type="zerowidth" />
    <inkscape:path-effect
       effect="powerstroke"
       id="path-effect47185"
       is_visible="true"
       lpeversion="1"
       offset_points="0,0.99"
       not_jump="false"
       sort_points="true"
       interpolator_type="CubicBezierJohan"
       interpolator_beta="0.2"
       start_linecap_type="zerowidth"
       linejoin_type="extrp_arc"
       miter_limit="4"
       scale_width="1"
       end_linecap_type="zerowidth" />
    <inkscape:path-effect
       effect="powerstroke"
       id="path-effect41016"
       is_visible="true"
       lpeversion="1"
       offset_points="0,0.99"
       not_jump="false"
       sort_points="true"
       interpolator_type="CubicBezierJohan"
       interpolator_beta="0.2"
       start_linecap_type="zerowidth"
       linejoin_type="extrp_arc"
       miter_limit="4"
       scale_width="1"
       end_linecap_type="zerowidth" />
    <inkscape:path-effect
       effect="powerstroke"
       id="path-effect40525"
       is_visible="true"
       lpeversion="1"
       offset_points="0,0.99"
       not_jump="false"
       sort_points="true"
       interpolator_type="CubicBezierJohan"
       interpolator_beta="0.2"
       start_linecap_type="zerowidth"
       linejoin_type="extrp_arc"
       miter_limit="4"
       scale_width="1"
       end_linecap_type="zerowidth" />
    <inkscape:path-effect
       effect="powerstroke"
       id="path-effect40521"
       is_visible="true"
       lpeversion="1"
       offset_points="0,0.99"
       not_jump="false"
       sort_points="true"
       interpolator_type="CubicBezierJohan"
       interpolator_beta="0.2"
       start_linecap_type="zerowidth"
       linejoin_type="extrp_arc"
       miter_limit="4"
       scale_width="1"
       end_linecap_type="zerowidth" />
    <inkscape:path-effect
       effect="powerstroke"
       id="path-effect40517"
       is_visible="true"
       lpeversion="1"
       offset_points="0,0.99"
       not_jump="false"
       sort_points="true"
       interpolator_type="CubicBezierJohan"
       interpolator_beta="0.2"
       start_linecap_type="zerowidth"
       linejoin_type="extrp_arc"
       miter_limit="4"
       scale_width="1"
       end_linecap_type="zerowidth" />
    <inkscape:path-effect
       effect="powerstroke"
       id="path-effect40513"
       is_visible="true"
       lpeversion="1"
       offset_points="0,0.99"
       not_jump="false"
       sort_points="true"
       interpolator_type="CubicBezierJohan"
       interpolator_beta="0.2"
       start_linecap_type="zerowidth"
       linejoin_type="extrp_arc"
       miter_limit="4"
       scale_width="1"
       end_linecap_type="zerowidth" />
    <inkscape:path-effect
       effect="powerstroke"
       id="path-effect40509"
       is_visible="true"
       lpeversion="1"
       offset_points="0,0.99"
       not_jump="false"
       sort_points="true"
       interpolator_type="CubicBezierJohan"
       interpolator_beta="0.2"
       start_linecap_type="zerowidth"
       linejoin_type="extrp_arc"
       miter_limit="4"
       scale_width="1"
       end_linecap_type="zerowidth" />
    <inkscape:path-effect
       effect="powerstroke"
       id="path-effect40505"
       is_visible="true"
       lpeversion="1"
       offset_points="0,0.99"
       not_jump="false"
       sort_points="true"
       interpolator_type="CubicBezierJohan"
       interpolator_beta="0.2"
       start_linecap_type="zerowidth"
       linejoin_type="extrp_arc"
       miter_limit="4"
       scale_width="1"
       end_linecap_type="zerowidth" />
    <inkscape:path-effect
       effect="powerstroke"
       id="path-effect40501"
       is_visible="true"
       lpeversion="1"
       offset_points="0,1.99"
       not_jump="false"
       sort_points="true"
       interpolator_type="CubicBezierJohan"
       interpolator_beta="0.2"
       start_linecap_type="zerowidth"
       linejoin_type="extrp_arc"
       miter_limit="4"
       scale_width="1"
       end_linecap_type="zerowidth" />
    <inkscape:path-effect
       effect="powerstroke"
       id="path-effect38946"
       is_visible="true"
       lpeversion="1"
       offset_points="0,1.99"
       not_jump="false"
       sort_points="true"
       interpolator_type="CubicBezierJohan"
       interpolator_beta="0.2"
       start_linecap_type="zerowidth"
       linejoin_type="extrp_arc"
       miter_limit="4"
       scale_width="1"
       end_linecap_type="zerowidth" />
    <inkscape:path-effect
       effect="powerstroke"
       id="path-effect38942"
       is_visible="true"
       lpeversion="1"
       offset_points="0,4.99214"
       not_jump="false"
       sort_points="true"
       interpolator_type="CubicBezierJohan"
       interpolator_beta="0.2"
       start_linecap_type="zerowidth"
       linejoin_type="extrp_arc"
       miter_limit="4"
       scale_width="1"
       end_linecap_type="zerowidth" />
    <rect
       x="114.09342"
       y="322.34448"
       width="1063.161"
       height="253.26581"
       id="rect36285" />
    <rect
       x="40.489979"
       y="389.92676"
       width="833.34149"
       height="253.47505"
       id="rect25457" />
    <rect
       x="95.38903"
       y="480.97107"
       width="68.161499"
       height="97.545341"
       id="rect21625" />
    <rect
       x="134.41232"
       y="515.0307"
       width="75.587021"
       height="164.79256"
       id="rect18925" />
    <clipPath
       clipPathUnits="userSpaceOnUse"
       id="clipPath47366">
      <path
         id="path47368"
         style="fill:#ff0000;fill-opacity:1;fill-rule:nonzero;stroke:none"
         d="m 554.94531,527.33008 v 5.51172 c 0.30598,-0.22631 0.6145,-0.45028 0.91602,-0.68164 0.33343,0.15027 0.67798,0.27731 1,0.45117 0.0778,0.042 0.13687,0.10995 0.19922,0.17383 0.50317,-0.1255 1.04217,0.0337 1.45312,0.47851 h 0.002 c 0.003,4e-4 0.002,0.005 0.004,0.006 l 0.002,0.002 c 0.037,-0.0331 0.0725,-0.0664 0.10938,-0.0996 0.21857,-0.16441 0.21736,-0.17468 0.52539,-0.32813 0.079,-0.0393 0.15797,-0.0788 0.24414,-0.0977 0.23501,-0.0484 0.47327,-0.0883 0.71289,-0.0996 0.12911,-0.006 0.26722,-0.007 0.38477,0.0469 0.36106,0.16479 0.68611,0.3981 1.02929,0.59766 0.43284,0.49016 0.34388,0.33447 0.67383,1.32421 0.0133,0.0403 0.0231,0.0814 0.0312,0.12305 0.0932,-0.048 0.18934,-0.0904 0.28711,-0.12695 0.74737,-0.27937 1.31948,0.18095 1.93945,0.625 0.0533,-0.11948 0.11845,-0.24566 0.19532,-0.39063 0.1028,-0.19434 0.3216,-0.39807 0.46484,-0.54882 0.19457,-0.16774 0.35727,-0.30693 0.57422,-0.45508 0.0582,-0.0397 0.11632,-0.0828 0.18359,-0.10547 0.29813,-0.0937 0.60584,-0.15809 0.90821,-0.23633 0.34881,0.0246 0.70262,0.035 1.04882,0.0898 0.11944,0.0193 0.23799,0.0398 0.35743,0.0625 0.11891,0.0259 0.22294,0.0467 0.33398,0.0762 0.0137,-7.6e-4 0.0273,-8.4e-4 0.041,-0.002 0.007,0.002 0.005,0.003 0.0137,0.006 0.22133,0.0707 0.45077,0.11412 0.67187,0.18555 0.0348,0.0113 0.22487,0.11429 0.2793,0.14453 0.16694,0.0907 0.24204,0.12837 0.43555,0.29883 0.0241,0.0212 0.0443,0.0451 0.0664,0.0684 -0.0268,-0.0215 -0.10262,-0.0929 -0.0801,-0.0664 0.0767,0.0809 0.15545,0.15948 0.23438,0.23828 0.007,0.008 0.0147,0.014 0.0215,0.0215 0.009,0.009 0.0183,0.0182 0.0273,0.0273 0.0439,-0.24003 0.0786,-0.42275 0.18945,-1.07227 0.24049,-1.40963 0.53112,-2.84311 0.52734,-4.28124 l 0.004,-0.002 c -0.002,-0.71694 0.35906,-1.07422 0.7207,-1.07422 0.36165,0 0.72474,0.35728 0.72852,1.07422 0.007,1.51862 -0.29336,3.02852 -0.54687,4.51758 -0.38559,2.26477 -0.2467,1.49791 -0.77735,3.83203 -0.0979,0.35838 -0.22758,0.71031 -0.29297,1.07617 -0.12775,0.71641 -0.20238,1.44108 -0.28515,2.16407 -0.18771,1.64181 -0.24619,3.2903 -0.30469,4.93945 h 91.18555 v -18.49414 z m 13.14258,6.37109 c -0.1581,0.006 -0.43732,0.05 -0.32422,0.0566 0.20641,0.01 0.41257,-0.007 0.61914,-0.0215 -0.0781,-0.0161 -0.15688,-0.0298 -0.23633,-0.0352 -0.0161,-9.9e-4 -0.036,-8.1e-4 -0.0586,0 z m 0.33203,1.92578 c 0.007,0.006 0.0127,0.0136 0.0195,0.0195 0.0287,-0.004 0.0573,-0.009 0.0859,-0.0137 -0.0365,-0.004 -0.07,-0.003 -0.10547,-0.006 z m -7.38086,0.23828 c 0.003,-0.004 0.003,-0.004 -0.004,0.002 -0.0284,0.0247 -0.0505,0.0559 -0.0762,0.082 0.003,-0.003 0.007,-0.005 0.01,-0.008 0.017,-0.0187 0.0603,-0.0644 0.0703,-0.0762 z m 4.01758,2.12891 c 0.0219,0.0453 0.0362,0.0951 0.0664,0.13477 0.0219,0.0283 -0.0164,-0.0694 -0.0391,-0.0996 -0.009,-0.012 -0.0181,-0.0234 -0.0273,-0.0352 z m -10.11133,4.61914 v 3.21094 h 6.2793 c -9.7e-4,-0.002 -9.7e-4,-0.004 -0.002,-0.006 -0.10394,-0.18554 -0.20567,-0.37233 -0.30469,-0.56055 -0.11717,-0.22284 -0.23377,-0.44548 -0.34375,-0.67187 -0.0274,-0.0563 -0.0213,-0.0418 -0.0449,-0.0898 -0.0142,-0.0234 -0.0242,-0.0402 -0.0391,-0.0644 -0.17661,-0.32476 -0.26949,-0.48758 -0.33984,-0.61328 -0.007,0.002 -0.0129,0.005 -0.0195,0.008 -0.29794,0.0567 -0.59255,0.14347 -0.89453,0.16992 -0.16713,0.0144 -0.33824,-0.006 -0.5,-0.0508 -0.28815,-0.0801 -0.56388,-0.20012 -0.83789,-0.32031 -0.0703,-0.0306 -0.12823,-0.0847 -0.18946,-0.13086 -0.33853,-0.25475 -0.28115,-0.20579 -0.49414,-0.41797 -0.0482,0.0291 -0.0957,0.0591 -0.14257,0.0899 -0.39534,-0.0155 -0.79218,-8.8e-4 -1.18555,-0.043 -0.10016,-0.0106 -0.18935,-0.0667 -0.2793,-0.11133 -0.16732,-0.0832 -0.32922,-0.177 -0.49023,-0.27149 -0.0435,-0.0253 -0.0826,-0.0576 -0.12305,-0.0879 -0.0283,-0.0211 -0.0281,-0.0236 -0.0488,-0.0391 z m 13.76563,1.03711 c -0.0443,0.11178 -0.0766,0.22725 -0.12305,0.33789 -0.10797,0.25718 -0.13224,0.30583 -0.19727,0.43164 0.0548,-0.13752 0.12408,-0.36415 0.084,-0.27734 -0.12064,0.26192 -0.20838,0.53561 -0.30273,0.7832 0.40005,-0.35047 0.77075,-0.81092 0.53906,-1.27539 z m 0.0918,0.75195 c -0.13821,0.14427 -0.33811,0.31992 -0.67187,0.62891 -0.2191,0.53941 -0.4988,0.90086 -1.27539,0.58984 -0.0394,0.002 -0.0539,-8.5e-4 -0.0293,-0.0117 -0.38818,-0.16118 -0.92669,-0.52556 -1.61133,-1.07422 -0.0831,0.29087 -0.21103,0.59992 -0.39257,0.92382 -0.0227,0.0406 -0.16542,0.29525 -0.20899,0.36524 h 4.1211 c 0.018,-0.47414 0.0466,-0.94787 0.0684,-1.42188 z m -4.11523,0.42969 c -0.009,0.0378 -0.0376,0.11972 -0.0859,0.26172 -0.028,0.0642 -0.0524,0.12336 -0.0781,0.18164 0.0883,-0.0786 0.17588,-0.15872 0.26758,-0.23242 -0.001,-0.14427 -0.0376,-0.20932 -0.10352,-0.21094 z m -0.0293,0.002 c -0.11402,0.024 -0.29719,0.19183 -0.52539,0.43164 0.0296,0.0474 0.0585,0.0951 0.0879,0.14258 0.2442,-0.28675 0.38556,-0.50326 0.44141,-0.57422 -0.001,2.5e-4 -0.003,-2.9e-4 -0.004,0 z m 0.13282,0.22266 c -0.008,0.009 -0.009,0.0118 -0.0137,0.0176 -0.0302,0.037 -0.0596,0.0735 -0.0898,0.11133 -4.9e-4,10e-4 -0.002,-4.6e-4 -0.004,0 0.009,-0.0215 0.0133,-0.033 0.0156,-0.0391 -0.0188,0.0366 -0.12975,0.26479 -0.23633,0.33594 -0.0187,0.0125 -0.0376,0.0231 -0.0566,0.0352 -0.0185,0.0347 -0.0385,0.0673 -0.0586,0.0996 0.0429,0.0687 0.084,0.13831 0.12695,0.20703 h 0.10742 c 0.0151,-0.0819 0.11776,-0.15632 0.13672,-0.24414 0.0488,-0.23253 0.0715,-0.40378 0.0723,-0.52344 z" />
    </clipPath>
  </defs>
  <g
     inkscape:label="Layer 1"
     inkscape:groupmode="layer"
     id="layer1"
     transform="translate(-5.779738,-156.15478)">
    <text
       xml:space="preserve"
       transform="scale(0.26458333)"
       id="text18923"
       style="font-style:normal;font-weight:normal;font-size:40px;line-height:1.25;font-family:sans-serif;white-space:pre;shape-inside:url(#rect18925);fill:#000000;fill-opacity:1;stroke:none" />
    <text
       xml:space="preserve"
       transform="scale(0.26458333)"
       id="text21623"
       style="font-style:normal;font-weight:normal;font-size:40px;line-height:1.25;font-family:sans-serif;white-space:pre;shape-inside:url(#rect21625);fill:#000000;fill-opacity:1;stroke:none" />
    <text
       xml:space="preserve"
       transform="scale(0.26458333)"
       id="text25455"
       style="font-style:normal;font-weight:normal;font-size:40px;line-height:1.25;font-family:sans-serif;white-space:pre;shape-inside:url(#rect25457);fill:#000000;fill-opacity:1;stroke:none" />
    <text
       xml:space="preserve"
       transform="scale(0.26458333)"
       id="text36283"
       style="font-style:normal;font-weight:normal;font-size:40px;line-height:1.25;font-family:sans-serif;white-space:pre;shape-inside:url(#rect36285);fill:#000000;fill-opacity:1;stroke:none" />
    <g
       aria-label="Συνωνυμο λογος"
       transform="matrix(0.26458315,0,0,0.26458142,5.3308282,172.65053)"
       id="text77239"
       style="font-size:98.6667px;line-height:1.25;white-space:pre;shape-inside:url(#rect77241);fill:#fffffc">
      <path
         d="M 57.542022,29.118262 V 21.126259 H 12.550005 L 36.427347,-7.980418 16.496673,-34.719094 h 39.072015 v -8.09067 H 5.051336 v 8.09067 L 24.98201,-7.980418 1.6966681,20.731592 v 8.38667 z"
         id="path864" />
      <path
         d="M 75.104663,6.2275872 V -22.58309 h -8.68267 V 9.5822551 c 0,13.3200049 3.256002,20.9173409 21.904008,20.9173409 12.925339,0 21.312009,-3.157335 21.312009,-20.9173409 V -22.58309 h -8.68267 V 6.2275872 c 0,11.8400038 -2.072002,16.7733398 -12.826672,16.7733398 -11.445338,0 -13.024005,-4.637335 -13.024005,-16.7733398 z"
         id="path866" />
      <path
         d="m 143.67808,29.118262 19.832,-51.701352 h -9.27467 L 139.63274,19.350259 125.8194,-22.58309 h -9.27467 l 18.15468,51.701352 z"
         id="path868" />
      <path
         d="M 204.55546,14.022257 V -7.980418 h -8.288 v 22.002675 c 0,3.058667 -1.57867,8.485336 -9.768,8.880003 -8.38667,0 -10.75468,-8.68267 -10.75468,-16.9706729 0,-10.6560039 4.44001,-19.9306741 10.65601,-26.1466761 l -7.89334,-2.565334 c -7.59733,6.018669 -11.05067,22.10134101 -11.05067,28.1200099 0,12.9253381 5.72267,24.6666751 18.74667,24.6666751 7.30134,0 11.54401,-3.650668 14.20801,-8.880003 2.76267,5.229335 7.00534,8.880003 14.20801,8.880003 7.79466,0 18.74667,-5.130668 18.74667,-24.6666751 0,-10.5573372 -5.624,-23.7786749 -11.05067,-28.1200099 l -7.89334,2.565334 c 5.92,6.413336 10.65601,14.4053385 10.65601,26.1466761 0,8.3866699 -2.46667,16.9706729 -10.85334,16.9706729 -7.49867,-0.394667 -9.66934,-5.229335 -9.66934,-8.880003 z"
         id="path870" />
      <path
         d="m 264.44621,29.118262 19.83201,-51.701352 h -9.27467 L 260.40088,19.350259 246.58754,-22.58309 h -9.27467 l 18.15467,51.701352 z"
         id="path872" />
      <path
         d="M 299.8676,6.2275872 V -22.58309 h -8.68267 V 9.5822551 c 0,13.3200049 3.256,20.9173409 21.904,20.9173409 12.92534,0 21.31201,-3.157335 21.31201,-20.9173409 V -22.58309 h -8.68267 V 6.2275872 c 0,11.8400038 -2.072,16.7733398 -12.82667,16.7733398 -11.44534,0 -13.024,-4.637335 -13.024,-16.7733398 z"
         id="path874" />
      <path
         d="m 366.96099,30.302263 c 6.61067,0 9.96534,-2.762668 12.82667,-7.301336 v 6.117335 h 7.89334 v -51.602685 h -8.48534 v 22.20000782 c 0,6.70933578 -0.296,11.44533718 -1.67733,15.88533918 -0.592,1.874667 -4.44,6.808002 -10.75467,6.808002 -5.52534,0 -9.27467,-3.157334 -10.656,-7.597336 -0.78934,-2.269334 -1.184,-7.3013357 -1.184,-15.29333858 V -22.484423 h -8.68267 v 71.336026 h 8.68267 V 23.987594 c 3.15733,4.242668 6.11733,6.314669 12.03733,6.314669 z"
         id="path876" />
      <path
         d="m 396.56111,2.4782525 c 0,18.3520065 9.07733,27.6266765 23.68,27.6266765 13.81334,0 24.07468,-9.472003 24.07468,-27.6266765 0,-20.9173405 -14.01067,-25.8506765 -24.07468,-25.8506765 -9.96533,0 -23.68,4.933336 -23.68,25.8506765 z m 23.68,20.3253405 c -6.61066,0 -14.99733,-3.946668 -14.99733,-19.5360069 0,-15.5893391 8.78133,-19.5360071 14.99733,-19.5360071 6.11734,0 15.19468,3.848001 15.19468,19.3386737 0,15.7866723 -8.58401,19.7333403 -15.19468,19.7333403 z"
         id="path878" />
      <path
         d="M 492.46521,-22.188423 472.9292,29.118262 h 9.47201 l 14.40533,-41.440015 12.03734,34.928013 c 1.48,4.242668 2.86134,7.696003 7.992,7.696003 2.17067,0 4.83467,-0.789334 7.99201,-2.368001 l -1.97334,-6.906669 c -0.39466,0.394666 -2.76266,1.085333 -3.35466,1.085333 -1.28267,0 -2.26934,-0.690667 -2.76267,-1.874667 l -16.37867,-43.216016 c -3.45334,-8.97867 -6.41334,-19.930674 -17.36534,-19.930674 -1.48,0 -3.35467,0.394667 -5.52534,1.184001 l -0.98667,8.090669 c 0,0 3.45334,-0.789333 5.32801,-0.789333 6.512,0 7.89333,4.341335 10.656,12.234671 z"
         id="path880" />
      <path
         d="m 528.77452,2.4782525 c 0,18.3520065 9.07733,27.6266765 23.68,27.6266765 13.81334,0 24.07468,-9.472003 24.07468,-27.6266765 0,-20.9173405 -14.01067,-25.8506765 -24.07468,-25.8506765 -9.96533,0 -23.68,4.933336 -23.68,25.8506765 z m 23.68,20.3253405 c -6.61067,0 -14.99733,-3.946668 -14.99733,-19.5360069 0,-15.5893391 8.78133,-19.5360071 14.99733,-19.5360071 6.11734,0 15.19468,3.848001 15.19468,19.3386737 0,15.7866723 -8.58401,19.7333403 -15.19468,19.7333403 z"
         id="path882" />
      <path
         d="m 629.61194,-22.58309 h -8.68267 l -14.208,37.69068 -11.64267,-29.994677 c -2.664,-7.005336 -4.24267,-8.880003 -10.45867,-8.880003 -0.592,0 -4.14401,0.690667 -4.14401,1.184 l 0.59201,6.906669 c 0.888,-0.394667 1.67733,-0.592 2.56533,-0.592 1.08533,0 2.072,0.394667 2.46667,1.381334 l 16.47734,40.256014 v 23.285342 h 8.48533 V 25.368927 Z"
         id="path884" />
      <path
         d="m 633.55857,2.4782525 c 0,18.3520065 9.07734,27.6266765 23.68001,27.6266765 13.81334,0 24.07468,-9.472003 24.07468,-27.6266765 0,-20.9173405 -14.01067,-25.8506765 -24.07468,-25.8506765 -9.96534,0 -23.68001,4.933336 -23.68001,25.8506765 z m 23.68001,20.3253405 c -6.61067,0 -14.99734,-3.946668 -14.99734,-19.5360069 0,-15.5893391 8.78134,-19.5360071 14.99734,-19.5360071 6.11734,0 15.19467,3.848001 15.19467,19.3386737 0,15.7866723 -8.584,19.7333403 -15.19467,19.7333403 z"
         id="path886" />
      <path
         d="m 687.23332,1.8862523 c 0,16.0826727 13.51733,26.8373427 26.24534,27.4293437 3.94667,0.197333 11.34667,0.493333 11.34667,3.157334 0,1.973334 -2.86133,9.077337 -4.04533,11.445337 l 8.88,3.157335 c 1.67733,-3.848001 4.736,-11.149337 4.736,-15.194672 0,-8.485337 -9.07734,-10.458671 -17.36534,-11.346671 -7.89334,-0.888 -20.32534,-2.960001 -20.32534,-18.4506733 0,-14.5040057 8.97867,-18.1546737 14.99734,-18.1546737 8.584,0 13.81334,4.736002 13.81334,13.2213386 h 8.97867 c 0,-12.6293376 -9.07734,-20.9173406 -22.00268,-20.9173406 -15.19467,0 -25.25867,10.16267 -25.25867,25.6533423 z"
         id="path888" />
    </g>
  </g>
  <g
     inkscape:groupmode="layer"
     id="layer2"
     inkscape:label="Decorations"
     transform="translate(11.142742,-46.464634)">
    <g
       id="g94220"
       transform="translate(-18.194928,-63.225524)">
      <path
         style="fill:#ffffff;fill-opacity:1;stroke-width:0.264583"
         id="path38396"
         d="m 178.13658,112.56588 c 2.01799,-0.96617 0.0369,-0.0227 -5.17207,3.00186 -0.19452,0.11294 0.38926,-0.22619 0.5911,-0.32546 0.28013,-0.13778 0.56325,-0.27067 0.85369,-0.38513 1.00298,-0.39529 1.21832,-0.40607 2.30714,-0.6727 2.00375,-0.37049 4.05235,-0.41244 6.07862,-0.22983 1.13752,0.10251 1.51692,0.18945 2.61751,0.37883 0.96583,0.1703 1.89706,0.46743 2.8215,0.78565 0,0 5.01293,-3.44331 5.01293,-3.44331 v 0 c -1.07126,-0.22395 -2.14421,-0.44182 -3.22951,-0.58858 -0.45195,-0.0533 -0.90306,-0.11426 -1.35585,-0.15981 -2.00315,-0.20154 -4.03031,-0.31326 -6.04394,-0.26462 -0.44253,0.0107 -0.88421,0.0442 -1.32631,0.0663 -0.37731,0.0468 -0.75701,0.0771 -1.13191,0.1403 -0.32791,0.0553 -1.24291,0.27784 -1.60847,0.39334 -0.16071,0.0508 -0.32546,0.0977 -0.47249,0.18004 -5.55243,3.11104 -4.18122,2.15941 -6.33486,3.67402 0,0 6.39292,-2.55095 6.39292,-2.55095 z" />
      <rect
         style="fill:#1b4ab7;fill-opacity:0;stroke:#1b4ab7;stroke-width:1.414;stroke-miterlimit:4;stroke-dasharray:none;stroke-opacity:1"
         id="rect41516-2"
         width="17.348"
         height="17.624777"
         x="144.16495"
         y="118.13179"
         rx="16.948"
         ry="20.962999" />
      <rect
         style="fill:#1b4ab7;fill-opacity:1;stroke:#1b4ab7;stroke-width:1.63943;stroke-miterlimit:4;stroke-dasharray:none;stroke-opacity:1"
         id="rect42478"
         width="9.3869562"
         height="0.20909549"
         x="161.88316"
         y="127.11724" />
      <rect
         style="fill:#1b4ab7;fill-opacity:0;stroke:#1b4ab7;stroke-width:1.414;stroke-miterlimit:4;stroke-dasharray:none;stroke-opacity:1"
         id="rect105432"
         width="17.348"
         height="17.624777"
         x="171.73318"
         y="118.13179"
         rx="16.948"
         ry="20.962999" />
      <path
         style="fill:#ffffff;fill-opacity:1;fill-rule:nonzero;stroke:none;stroke-width:1.665;stroke-linecap:butt;stroke-linejoin:miter;stroke-miterlimit:4;stroke-dasharray:none;stroke-opacity:1"
         d="m 152.17897,141.02288 c 0,0 -0.41134,0.91148 -0.41134,0.91148 4.62336,2.08647 10.2264,3.96792 15.62841,4.23299 3.99088,0.19583 7.15368,-0.52391 9.58913,-1.74429 2.37695,-1.19106 3.80823,-2.73126 4.60422,-3.83691 1.11068,-1.54276 1.11552,-2.10224 1.11552,-2.10224 0,0 -0.16466,0.51261 -1.42067,1.85163 -0.90604,0.96594 -2.40819,2.25537 -4.71041,3.17604 -2.34978,0.93969 -5.32113,1.41275 -9.06306,1.05474 -5.12081,-0.48994 -10.37359,-2.40298 -14.92046,-4.45492 0,0 -0.41134,0.91148 -0.41134,0.91148 z"
         id="path20057"
         inkscape:original-d="m 152.17897,141.02288 c 24.90016,11.23714 30.52594,-2.53897 30.52594,-2.53897"
         inkscape:path-effect="#path-effect20059" />
      <path
         style="fill:#ffffff;fill-opacity:1;stroke-width:0.264583"
         id="path38394"
         d="m 165.0137,111.05017 c -0.19806,-0.10141 -0.38714,-0.20623 -0.60092,-0.27653 -0.76691,-0.25221 -1.56709,-0.38562 -2.35845,-0.53019 -1.89939,-0.26112 -3.81112,-0.43833 -5.72692,-0.51801 -0.42535,-0.0177 -0.85108,-0.0419 -1.27671,-0.0336 -0.38545,0.008 -0.76914,0.0541 -1.15371,0.0811 -0.99622,0.19442 -1.02896,0.1659 -1.96534,0.47913 -0.27835,0.0931 -0.54962,0.20616 -0.82443,0.30924 0,0 -4.74696,3.74197 -4.74696,3.74197 v 0 c 0.94909,-0.42761 1.90094,-0.85377 2.92073,-1.09026 0.40528,-0.0693 0.80678,-0.16652 1.21586,-0.20788 0.44831,-0.0453 0.90021,-0.0485 1.35079,-0.0516 1.39194,-0.01 2.80969,0.0777 4.17223,0.37931 0.36779,0.0814 0.72453,0.20655 1.08679,0.30982 0.68653,0.26366 0.76603,0.26366 1.35388,0.58652 0.23411,0.12858 0.50086,0.28124 0.65399,0.50993 0,0 5.89917,-3.68899 5.89917,-3.68899 z" />
    </g>
  </g>
</svg>
